# xmcd CD database file
#
# Track frame offsets:
#	150
#	37347
#	57482
#	80205
#	93722
#	120792
#	125307
#	155385
#	168670
#	176002
#	183325
#	203530
#	208285
#	218127
#	231987
#	247025
#	258537
#
# Disc length: 3680 seconds
#
# Revision: 0
# Processed by: cddbd v1.5.1PL0 Copyright (c) Steve Scherf et al.
# Submitted via: CDex 1.51
#
DISCID=000e5e11
DTITLE=Fanya de Stella - Bonewoman
DYEAR=1999
DGENRE=New Age
TTITLE0=Aus dem nichts
TTITLE1=Sterbetanz
TTITLE2=Lied der Mutter
TTITLE3=Deep in my Body
TTITLE4=Tanz der Verwandlung
TTITLE5=Todesmeditation
TTITLE6=Die Kraft
TTITLE7=Tango
TTITLE8=Impro.Schlagzeug-Stimme
TTITLE9=Impro.Klarinette-Stimme
TTITLE10=Bonewomans Lied
TTITLE11=Impro.Piano
TTITLE12=Herzmantra
TTITLE13=Trancemusik
TTITLE14=Give In
TTITLE15=Trommeln
TTITLE16=Freudentanz
EXTD=YEAR: 1999
EXTT0=
EXTT1=
EXTT2=
EXTT3=
EXTT4=
EXTT5=
EXTT6=
EXTT7=
EXTT8=
EXTT9=
EXTT10=
EXTT11=
EXTT12=
EXTT13=
EXTT14=
EXTT15=
EXTT16=
PLAYORDER=
